{"asset":{"copyright":"","generator":"Source 2 Viewer 15.0.0.0 - https://valveresourceformat.github.io","version":"2.0"},"accessors":[{"bufferView":0,"componentType":5126,"count":14620,"max":[6.449697971343994,19.676204681396484,63.901607513427734],"min":[-7.20400333404541,-19.72576141357422,-1.0982378721237183],"type":"VEC3"},{"bufferView":1,"componentType":5126,"count":14620,"max":[1,1,1],"min":[-1,-1,-1],"type":"VEC3"},{"bufferView":2,"componentType":5126,"count":14620,"max":[1,1],"min":[0,0],"type":"VEC2"},{"bufferView":3,"componentType":5125,"count":76800,"type":"SCALAR"},{"bufferView":4,"componentType":5126,"count":36,"max":[32.83333969116211,1.988917589187622,10.574395179748535],"min":[-5.759566783905029,-2.087877035140991,-0.4001111090183258],"type":"VEC3"},{"bufferView":5,"componentType":5126,"count":36,"max":[1,1,1],"min":[-1,-1,-1],"type":"VEC3"},{"bufferView":6,"componentType":5126,"count":36,"max":[0.6566667556762695,0.21148790419101715],"min":[-0.11519133299589157,-0.03977835178375244],"type":"VEC2"},{"bufferView":7,"componentType":5125,"count":36,"type":"SCALAR"}],"bufferViews":[{"buffer":0,"byteLength":175440,"byteOffset":307200,"target":34962},{"buffer":0,"byteLength":175440,"byteOffset":482640,"target":34962},{"buffer":0,"byteLength":116960,"byteOffset":658080,"target":34962},{"buffer":0,"byteLength":307200,"target":34963},{"buffer":0,"byteLength":432,"byteOffset":775040,"target":34962},{"buffer":0,"byteLength":432,"byteOffset":775472,"target":34962},{"buffer":0,"byteLength":288,"byteOffset":775904,"target":34962},{"buffer":0,"byteLength":144,"byteOffset":776192,"target":34963}],"buffers":[{"byteLength":776336,"uri":"super_trooper_humanoid_physics.bin"}],"images":[{"name":"physics_wade","uri":"physics_wade.png"},{"name":"physics_default","uri":"physics_default.png"}],"materials":[{"name":"physics_group_wade_material","pbrMetallicRoughness":{"baseColorFactor":[0.5,0.5,1,1],"baseColorTexture":{"index":0},"metallicFactor":0}},{"name":"physics_group_material","pbrMetallicRoughness":{"baseColorFactor":[0.5,0.5,1,1],"baseColorTexture":{"index":1},"metallicFactor":0}}],"meshes":[{"name":"physics_group_wade","primitives":[{"attributes":{"POSITION":0,"NORMAL":1,"TEXCOORD_0":2},"indices":3,"material":0}]},{"name":"physics_group","primitives":[{"attributes":{"POSITION":4,"NORMAL":5,"TEXCOORD_0":6},"indices":7,"material":1}]}],"nodes":[{"extras":{"SurfaceProperty":"wade","InteractAs":[]},"name":"physics_group_wade","matrix":[3.027916E-09,0,0.025399996,0,0.025399996,3.027916E-09,0,0,0,0.025399996,3.027916E-09,0,0,0,0,1],"mesh":0},{"extras":{"SurfaceProperty":"default","InteractAs":[]},"name":"physics_group","matrix":[3.027916E-09,0,0.025399996,0,0.025399996,3.027916E-09,0,0,0,0.025399996,3.027916E-09,0,0,0,0,1],"mesh":1}],"samplers":[{"magFilter":9729,"minFilter":9987}],"scenes":[{"name":"super_trooper_humanoid.vmdl_c","nodes":[0,1]}],"textures":[{"name":"physics_wade","sampler":0,"source":0},{"name":"physics_default","sampler":0,"source":1}]}