{"asset":{"copyright":"","generator":"Source 2 Viewer 15.0.0.0 - https://valveresourceformat.github.io","version":"2.0"},"accessors":[{"bufferView":0,"componentType":5126,"count":14620,"max":[6.449684143066406,19.67620849609375,63.90157699584961],"min":[-7.20400857925415,-19.725744247436523,-1.0982788801193237],"type":"VEC3"},{"bufferView":1,"componentType":5126,"count":14620,"max":[1,1,1],"min":[-1,-1,-1],"type":"VEC3"},{"bufferView":2,"componentType":5126,"count":14620,"max":[1,1],"min":[0,0],"type":"VEC2"},{"bufferView":3,"componentType":5125,"count":76800,"type":"SCALAR"}],"bufferViews":[{"buffer":0,"byteLength":175440,"byteOffset":307200,"target":34962},{"buffer":0,"byteLength":175440,"byteOffset":482640,"target":34962},{"buffer":0,"byteLength":116960,"byteOffset":658080,"target":34962},{"buffer":0,"byteLength":307200,"target":34963}],"buffers":[{"byteLength":775040,"uri":"super_trooper_melee_physics.bin"}],"images":[{"name":"physics_wade","uri":"physics_wade.png"}],"materials":[{"name":"physics_group_wade_material","pbrMetallicRoughness":{"baseColorFactor":[0.5,0.5,1,1],"baseColorTexture":{"index":0},"metallicFactor":0}}],"meshes":[{"name":"physics_group_wade","primitives":[{"attributes":{"POSITION":0,"NORMAL":1,"TEXCOORD_0":2},"indices":3,"material":0}]}],"nodes":[{"extras":{"SurfaceProperty":"wade","InteractAs":[]},"name":"physics_group_wade","matrix":[3.027916E-09,0,0.025399996,0,0.025399996,3.027916E-09,0,0,0,0.025399996,3.027916E-09,0,0,0,0,1],"mesh":0}],"samplers":[{"magFilter":9729,"minFilter":9987}],"scenes":[{"name":"super_trooper_melee.vmdl_c","nodes":[0]}],"textures":[{"name":"physics_wade","sampler":0,"source":0}]}